# xmcd
#
# Track frame offsets: 
#        150
#        12428
#        24510
#        39622
#        51011
#        62928
#        74493
#        87406
#        97544
#        110741
#        124920
#        137551
#        148210
#        159859
#        172208
#        182354
#        194666
#        205455
#        215609
#        226606
#        239233
#        250352
#        260880
#        271673
#
# Disc length: 3774 seconds
#
# Revision: 0
# Processed by: cddbd v1.5.2PL0 Copyright (c) Steve Scherf et al.
# Submitted via: ExactAudioCopy v1.0b3
#
DISCID=6e0ebc18
DTITLE=The Louvin Brothers - Complete Recorded Works 1952-62 CD5
DYEAR=2014
DGENRE=Country
TTITLE0=Weary Lonesome Blues
TTITLE1=Midnight Special
TTITLE2=Blues Stay Away from Me
TTITLE3=Sand Mountain Blues
TTITLE4=Southern Moon
TTITLE5=Nashville Blues
TTITLE6=Brown's Ferry Blues
TTITLE7=When It's Time For The Whippoorwill
TTITLE8=Freight Train Boogie
TTITLE9=Put Me On The Train To Carolina
TTITLE10=Gonna Lay Down My Old Guitar
TTITLE11=The Last Old Shovel
TTITLE12=Childish Love
TTITLE13=Love Is A Lonely Street
TTITLE14=If You Love Me Stay Away
TTITLE15=Cash On The Barrelhead
TTITLE16=The New Partner Waltz
TTITLE17=The Stagger
TTITLE18=Ruby's Song
TTITLE19=Nellie Moved To Town
TTITLE20=What A Change One Day Can Make
TTITLE21=Call Me
TTITLE22=You're Learning
TTITLE23=My Curly Headed Baby
EXTD=
EXTT0=
EXTT1=
EXTT2=
EXTT3=
EXTT4=
EXTT5=
EXTT6=
EXTT7=
EXTT8=
EXTT9=
EXTT10=
EXTT11=
EXTT12=
EXTT13=
EXTT14=
EXTT15=
EXTT16=
EXTT17=
EXTT18=
EXTT19=
EXTT20=
EXTT21=
EXTT22=
EXTT23=
PLAYORDER=
